<svg width="102" height="102" viewBox="0 0 102 102" fill="none" xmlns="http://www.w3.org/2000/svg">
<g filter="url(#filter0_d_396_11232)">
<path d="M88.8593 56.424C83.5975 77.5267 62.2215 90.3696 41.1139 85.1071C20.0149 79.8459 7.17058 58.4712 12.4349 37.3697C17.6942 16.2645 39.0702 3.4205 60.1717 8.68171C81.2781 13.9429 94.1212 35.3201 88.8593 56.424V56.424Z" fill="#F7931A"/>
<path d="M68.0164 41.2844C68.8006 36.0429 64.8093 33.2252 59.3518 31.3454L61.1221 24.2451L56.7996 23.168L55.0761 30.0812C53.9398 29.7981 52.7726 29.531 51.6129 29.2663L53.3488 22.3076L49.0288 21.2305L47.2572 28.3283C46.3166 28.1141 45.3933 27.9024 44.497 27.6796L44.5019 27.6574L38.5409 26.1692L37.391 30.7853C37.391 30.7853 40.5981 31.5202 40.5304 31.5658C42.281 32.0028 42.5974 33.1611 42.5445 34.0794L40.5279 42.1682C40.6485 42.199 40.8049 42.2433 40.9773 42.3122C40.8332 42.2765 40.6793 42.2371 40.5205 42.199L37.6938 53.5302C37.4796 54.062 36.9367 54.8596 35.713 54.5568C35.7561 54.6196 32.5712 53.7727 32.5712 53.7727L30.4253 58.72L36.0503 60.122C37.0967 60.3842 38.1223 60.6587 39.1318 60.9173L37.343 68.0988L41.6605 69.1759L43.4321 62.0707C44.6115 62.3908 45.7565 62.6862 46.8768 62.9644L45.1114 70.0364L49.4338 71.1135L51.2227 63.9455C58.5934 65.3402 64.1359 64.7776 66.4689 58.1119C68.3488 52.7448 66.3753 49.6489 62.4973 47.6301C65.3215 46.9789 67.4488 45.1213 68.0164 41.2844V41.2844ZM58.1403 55.1317C56.8046 60.4987 47.7669 57.5973 44.8368 56.8698L47.2104 47.3555C50.1405 48.0868 59.5364 49.5344 58.1403 55.1317ZM59.4773 41.2068C58.2585 46.0889 50.7363 43.6085 48.2963 43.0003L50.4483 34.3712C52.8884 34.9793 60.7466 36.1142 59.4773 41.2068Z" fill="white"/>
</g>
<defs>
<filter id="filter0_d_396_11232" x="9.44138e-05" y="-0.000262737" width="101.293" height="101.293" filterUnits="userSpaceOnUse" color-interpolation-filters="sRGB">
<feFlood flood-opacity="0" result="BackgroundImageFix"/>
<feColorMatrix in="SourceAlpha" type="matrix" values="0 0 0 0 0 0 0 0 0 0 0 0 0 0 0 0 0 0 127 0" result="hardAlpha"/>
<feOffset dy="3.7516"/>
<feGaussianBlur stdDeviation="5.62739"/>
<feColorMatrix type="matrix" values="0 0 0 0 0.129412 0 0 0 0 0.105882 0 0 0 0 0.305882 0 0 0 0.15 0"/>
<feBlend mode="normal" in2="BackgroundImageFix" result="effect1_dropShadow_396_11232"/>
<feBlend mode="normal" in="SourceGraphic" in2="effect1_dropShadow_396_11232" result="shape"/>
</filter>
</defs>
</svg>
